<svg width="100%" height="100%" viewBox="0 0 460 180" fill="none" xmlns="http://www.w3.org/2000/svg">
  <defs>
    <!-- Premium Dark Background Gradient -->
    <linearGradient id="bgGradient" x1="0%" y1="0%" x2="100%" y2="100%">
      <stop offset="0%" stop-color="#070119" />
      <stop offset="100%" stop-color="#160838" />
    </linearGradient>

    <!-- Vibrant Web3/Tech Gradient for the Logo -->
    <linearGradient id="techGradient" x1="0%" y1="0%" x2="100%" y2="100%">
      <stop offset="0%" stop-color="#E141E7" />
      <stop offset="50%" stop-color="#6D3EE9" />
      <stop offset="100%" stop-color="#32B8FF" />
    </linearGradient>

    <!-- Glowing Effect for the Logo -->
    <filter id="glow" x="-20%" y="-20%" width="140%" height="140%">
      <feDropShadow dx="0" dy="6" stdDeviation="10" flood-color="#6D3EE9" flood-opacity="0.6"/>
      <feDropShadow dx="0" dy="0" stdDeviation="24" flood-color="#32B8FF" flood-opacity="0.4"/>
    </filter>

    <!-- Tech Grid Background Pattern -->
    <pattern id="grid" width="24" height="24" patternUnits="userSpaceOnUse">
      <path d="M 24 0 L 0 0 0 24" fill="none" stroke="rgba(255,255,255,0.03)" stroke-width="1"/>
    </pattern>
  </defs>

  <!-- Background Layer -->
  <rect width="100%" height="100%" rx="24" fill="url(#bgGradient)" />
  <rect width="100%" height="100%" rx="24" fill="url(#grid)" />

  <!-- Centered Logo Paths -->
  <g transform="translate(20, 22.5)" fill="url(#techGradient)" filter="url(#glow)">
    <path d="M123.6 130.8H126L64.2 1.8H60L1.8 130.8H4.2L62.1 2.4H63.9L123.6 130.8Z" />
    <path d="M116.4 130.8H118.8L180.6 1.8H176.4L118.2 130.8H119.4L178.5 2.4H179.7L116.4 130.8Z" />
    <path d="M122.4 130.8H124.8L183.6 1.8H181.2L122.4 130.8Z" />
    <path d="M120.6 130.8H123L61.2 1.8H58.8L120.6 130.8Z" />
    <path d="M120.6 130.8H118.2L180 1.8H182.4L120.6 130.8Z" />
    <path d="M122.4 130.8H120L58.2 1.8H60.6L122.4 130.8Z" />
    <path d="M190.8 1.8V130.8H214.2V68.7H216.6V130.8H240V1.8H216.6V66.3H214.2V1.8H190.8Z" />
    <path d="M192.6 3.6V129H212.4V68.1H218.4V129H238.2V3.6H218.4V66.9H212.4V3.6H192.6Z" />
    <path d="M190.8 1.8V3.6H214.2V1.8H190.8Z" />
    <path d="M216.6 1.8V3.6H240V1.8H216.6Z" />
    <path d="M190.8 129V130.8H214.2V129H190.8Z" />
    <path d="M216.6 129V130.8H240V129H216.6Z" />
    <path d="M309 68.7L250.2 130.8H252.6L309.6 70.5L309 68.7Z" />
    <path d="M309 66.9L250.2 1.8H252.6L309.6 65.1L309 66.9Z" />
    <path d="M309 68.7L367.8 130.8H365.4L309 69.3L309 68.7Z" />
    <path d="M309 66.9L367.8 1.8H365.4L309 66.3L309 66.9Z" />
    <path d="M250.2 1.8H252L249.6 4.2L250.2 1.8Z" />
    <path d="M367.8 1.8H366L368.4 4.2L367.8 1.8Z" />
    <path d="M250.2 130.8H252L249.6 128.4L250.2 130.8Z" />
    <path d="M367.8 130.8H366L368.4 128.4L367.8 130.8Z" />
    <path d="M309 68.7L309.6 70.5H308.4L309 68.7Z" />
    <path d="M309 66.9L309.6 65.1H308.4L309 66.9Z" />
    <path d="M312 68.7V130.8H335.4V68.7H312Z" />
    <path d="M312 1.8V66.9H335.4V1.8H312Z" />
    <path d="M313.8 3.6V66.9H333.6V3.6H313.8Z" />
    <path d="M313.8 68.7V129H333.6V68.7H313.8Z" />
    <path d="M312 1.8H335.4V3.6H312V1.8Z" />
    <path d="M312 129H335.4V130.8H312V129Z" />
    <path d="M417.6 1.8H391.8V130.8H417.6V1.8Z" />
    <path d="M415.8 3.6H393.6V129H415.8V3.6Z" />
    <path d="M391.8 1.8V130.8H393.6V1.8H391.8Z" />
    <path d="M415.8 1.8V130.8H417.6V1.8H415.8Z" />
    <path d="M391.8 1.8H417.6V3.6H391.8V1.8Z" />
    <path d="M391.8 129H417.6V130.8H391.8V129Z" />
  </g>
</svg>